<?xml version="1.0" standalone="no"?>
<!DOCTYPE svg PUBLIC "-//W3C//DTD SVG 20010904//EN"
 "http://www.w3.org/TR/2001/REC-SVG-20010904/DTD/svg10.dtd">
<svg version="1.0" xmlns="http://www.w3.org/2000/svg"
 width="1280.000000pt" height="720.000000pt" viewBox="0 0 1280.000000 720.000000"
 preserveAspectRatio="xMidYMid meet">

<g transform="translate(0.000000,720.000000) scale(0.100000,-0.100000)"
fill="#000000" stroke="none">
<path d="M4325 5123 c-342 -12 -686 -152 -913 -372 -301 -290 -469 -652 -489
-1047 -18 -385 105 -739 379 -1085 245 -311 567 -479 988 -518 131 -12 7714
-26 8013 -15 97 4 177 11 177 15 0 27 -59 129 -96 165 -47 47 -75 64 -147 88
-44 15 -365 16 -3770 16 -2132 0 -3780 4 -3857 10 -491 33 -781 141 -1021 379
-151 151 -249 316 -299 506 -119 451 -20 926 251 1217 99 105 307 231 474 287
227 75 483 88 713 35 276 -64 558 -264 679 -484 221 -400 155 -961 -151 -1280
-261 -272 -675 -351 -1091 -209 -112 39 -270 127 -344 193 -73 65 -148 203
-181 330 -76 299 15 726 195 908 86 88 207 151 370 194 98 25 343 26 435 1
236 -63 412 -231 492 -469 32 -97 37 -296 9 -406 -32 -130 -74 -205 -166 -298
-130 -132 -268 -182 -465 -170 -171 11 -272 52 -382 155 -226 212 -207 611 37
766 79 50 147 69 255 69 292 2 401 -137 346 -439 -18 -99 -48 -160 -96 -191
-56 -37 -130 -30 -198 18 -87 63 -134 167 -102 227 15 29 68 61 102 61 38 0
122 -33 164 -65 l34 -26 0 29 c0 60 -30 133 -74 176 -58 59 -117 80 -203 74
-115 -8 -194 -63 -249 -169 -25 -49 -27 -63 -26 -159 0 -81 5 -118 22 -162 59
-159 205 -250 400 -251 78 0 109 4 174 27 154 53 261 149 316 283 70 173 67
379 -8 517 -35 65 -152 182 -224 224 -174 102 -431 131 -623 68 -269 -87 -440
-301 -477 -594 -42 -346 116 -654 417 -809 97 -49 155 -69 265 -88 458 -81
906 203 1022 645 29 113 32 356 5 470 -57 240 -164 432 -305 545 -93 75 -261
160 -377 190 -270 71 -613 26 -849 -112 -283 -164 -450 -399 -516 -725 -26
-126 -29 -394 -6 -504 60 -283 288 -573 585 -745 102 -59 289 -124 407 -143
206 -32 408 -12 599 59 66 25 230 107 295 148 69 43 196 145 245 198 52 56
135 161 135 172 0 3 13 28 28 54 16 26 47 95 69 153 264 680 6 1382 -623 1698
-230 116 -501 174 -769 165z"/>
<path d="M6739 4945 c-152 -24 -305 -98 -377 -183 -81 -95 -114 -173 -137
-329 -9 -57 -19 -114 -25 -127 -14 -37 -56 -74 -92 -81 -69 -14 -68 -13 -68
-66 l0 -49 63 -1 c34 -1 73 -2 87 -2 l25 -2 0 -525 c0 -617 2 -600 -91 -646
l-54 -26 0 -49 0 -49 368 2 367 3 3 48 c3 38 0 48 -15 53 -10 3 -37 15 -61 26
-80 39 -77 14 -80 626 l-3 542 141 0 140 0 0 90 0 90 -140 0 -140 0 0 123 c0
154 14 249 44 307 27 52 55 70 109 70 48 0 92 -40 102 -93 l7 -37 84 0 84 0 0
144 0 143 -67 6 c-97 10 -175 7 -274 -8z"/>
<path d="M7410 4940 c-63 -4 -125 -8 -137 -9 -21 -1 -23 -6 -23 -49 l0 -47 58
-20 c50 -18 60 -25 80 -65 l22 -44 0 -833 c0 -899 2 -871 -52 -921 -14 -13
-38 -26 -54 -31 -27 -7 -29 -12 -32 -59 l-3 -52 365 0 366 0 0 49 c0 48 0 48
-45 66 -27 10 -56 31 -73 53 l-27 35 -5 966 -5 966 -160 1 c-88 0 -212 -2
-275 -6z"/>
<path d="M1986 4909 c-364 -47 -566 -223 -591 -516 -9 -94 7 -208 36 -266 82
-165 188 -258 453 -399 251 -135 338 -218 366 -348 31 -147 -24 -279 -144
-343 -36 -19 -57 -22 -166 -22 -117 0 -129 2 -183 28 -86 43 -164 160 -183
276 l-7 41 -103 0 -104 0 0 -234 0 -234 138 -21 c561 -88 868 -37 1064 178 93
101 134 241 125 420 -13 260 -127 402 -475 590 -219 118 -310 189 -353 276
-27 54 -31 74 -31 140 1 180 117 274 323 263 70 -4 96 -11 139 -34 70 -38 122
-105 157 -204 l28 -80 98 0 97 0 -2 217 -3 217 -87 18 c-210 42 -439 56 -592
37z"/>
<path d="M310 4841 c0 -47 2 -50 30 -56 17 -4 44 -18 61 -32 62 -53 59 -7 59
-870 0 -483 -4 -801 -10 -822 -13 -47 -44 -77 -96 -92 l-44 -13 0 -53 0 -53
388 2 387 3 0 50 c0 49 -1 49 -37 58 -51 12 -103 66 -111 114 -12 70 -8 1554
4 1598 15 53 34 73 97 101 52 24 52 24 52 69 l0 45 -390 0 -390 0 0 -49z"/>
<path d="M11175 4879 c-434 -3 -1219 -7 -1742 -8 l-953 -1 0 -133 0 -134 602
-6 c1172 -13 3375 -3 3394 15 4 4 -6 33 -22 64 -77 149 -211 217 -419 212 -38
-1 -425 -5 -860 -9z m1193 -154 c-3 -3 -9 2 -12 12 -6 14 -5 15 5 6 7 -7 10
-15 7 -18z m-2645 -112 c-24 -2 -62 -2 -85 0 -24 2 -5 4 42 4 47 0 66 -2 43
-4z m2185 0 c-10 -2 -26 -2 -35 0 -10 3 -2 5 17 5 19 0 27 -2 18 -5z"/>
<path d="M9065 4310 c-300 -46 -502 -228 -581 -525 -27 -99 -27 -408 0 -510
32 -125 90 -232 170 -311 82 -82 159 -123 287 -154 105 -25 286 -27 395 -5
151 32 301 114 412 228 l53 54 -59 63 -59 64 -63 -53 c-135 -113 -198 -135
-359 -129 -90 3 -115 8 -163 31 -66 32 -111 80 -144 152 -31 67 -54 181 -54
266 l0 69 470 0 470 0 0 58 c0 31 -7 98 -15 147 -51 311 -182 474 -435 539
-79 20 -243 28 -325 16z m171 -155 c43 -9 102 -81 123 -151 21 -67 41 -192 41
-255 l0 -39 -247 2 -248 3 3 50 c7 131 51 259 113 330 37 42 61 56 109 65 34
7 51 6 106 -5z"/>
<path d="M10157 4283 c-9 -9 -9 -65 1 -80 4 -6 19 -14 34 -18 42 -11 130 -113
265 -306 67 -96 155 -222 196 -281 l75 -106 -153 -181 c-203 -238 -318 -349
-400 -387 -38 -18 -40 -21 -40 -64 l0 -45 285 0 285 0 3 46 c3 46 2 47 -31 53
-50 9 -82 48 -80 96 3 55 25 92 132 224 75 92 97 114 107 104 19 -21 177 -255
196 -290 34 -62 12 -119 -49 -134 -20 -5 -23 -13 -23 -55 l0 -49 363 2 362 3
0 48 c0 48 -1 49 -38 62 -47 16 -71 38 -146 130 -50 61 -333 463 -384 545 -21
34 -19 40 38 102 22 23 111 122 196 218 179 202 224 244 279 266 38 15 40 18
40 60 l0 44 -285 0 -285 0 0 -44 c0 -41 3 -45 32 -55 53 -19 78 -49 78 -95 0
-23 -8 -56 -17 -73 -25 -45 -186 -242 -198 -242 -5 -1 -24 21 -42 47 -17 26
-52 76 -78 112 -105 147 -112 211 -29 246 32 13 34 18 34 59 l0 45 -358 0
c-197 0 -362 -3 -365 -7z"/>
</g>
</svg>
